<svg xmlns="http://www.w3.org/2000/svg" viewBox="0 0 512 512" role="img" aria-labelledby="title desc">
  <title id="title">Warning alert vector icon</title>
  <desc id="desc">A yellow triangular warning symbol with an exclamation mark.</desc>
  <defs>
    <linearGradient id="warningFill" x1="128" y1="96" x2="384" y2="448" gradientUnits="userSpaceOnUse">
      <stop offset="0" stop-color="#ffd84d"/>
      <stop offset="1" stop-color="#ff9f1c"/>
    </linearGradient>
    <filter id="softShadow" x="-20%" y="-20%" width="140%" height="140%">
      <feDropShadow dx="0" dy="14" stdDeviation="14" flood-color="#1f2937" flood-opacity="0.18"/>
    </filter>
  </defs>

  <rect width="512" height="512" fill="none"/>

  <g filter="url(#softShadow)">
    <path
      d="M246.6 79.1c4.2-7.3 14.6-7.3 18.8 0l190.1 329.2c4.2 7.3-1 16.4-9.4 16.4H65.9c-8.4 0-13.6-9.1-9.4-16.4L246.6 79.1z"
      fill="url(#warningFill)"
      stroke="#202938"
      stroke-width="24"
      stroke-linejoin="round"
    />
    <path
      d="M256 156c18.2 0 31.6 14.7 30.4 32.8l-10.1 128.7c-.8 11-9.7 19.5-20.3 19.5s-19.5-8.5-20.3-19.5l-10.1-128.7C224.4 170.7 237.8 156 256 156z"
      fill="#202938"
    />
    <circle cx="256" cy="374" r="25" fill="#202938"/>
  </g>

</svg>
